<!--?xml version="1.0" standalone="no"?-->
              <svg id="sw-js-blob-svg" viewBox="0 0 100 100" xmlns="http://www.w3.org/2000/svg" version="1.1">
                    <defs> 
                        <linearGradient id="sw-gradient" x1="0" x2="1" y1="1" y2="0">
                            <stop id="stop1" stop-color="rgba(255, 0, 0, 1)" offset="0%"></stop>
                            <stop id="stop2" stop-color="rgba(255, 0, 229.446, 1)" offset="100%"></stop>
                        </linearGradient>
                    </defs>
                <path fill="url(#sw-gradient)" d="M20.3,-38.4C24.2,-32.9,23.8,-23.2,27.1,-16.1C30.3,-9,37.3,-4.5,37.1,-0.2C36.8,4.2,29.3,8.4,24.1,12.2C18.9,16,16.1,19.5,12.5,24.6C8.9,29.7,4.4,36.4,-0.8,37.7C-6,39,-11.9,35,-17.2,30.9C-22.4,26.7,-26.9,22.4,-32,17.3C-37.2,12.1,-42.9,6,-43.7,-0.5C-44.5,-7,-40.4,-13.9,-35.4,-19.3C-30.4,-24.7,-24.5,-28.5,-18.5,-32.8C-12.5,-37,-6.2,-41.6,1,-43.3C8.2,-45.1,16.4,-43.8,20.3,-38.4Z" width="100%" height="100%" transform="translate(50 50)" stroke-width="0" style="transition: all 0.3s ease 0s;" stroke="url(#sw-gradient)"></path>
              </svg>