<!--?xml version="1.0" standalone="no"?-->
              <svg id="sw-js-blob-svg" viewBox="0 0 100 100" xmlns="http://www.w3.org/2000/svg" version="1.1">
                    <defs> 
                        <linearGradient id="sw-gradient" x1="0" x2="1" y1="1" y2="0">
                            <stop id="stop1" stop-color="rgba(0, 0, 0, 1)" offset="0%"></stop>
                            <stop id="stop2" stop-color="rgba(0, 73.603, 255, 1)" offset="100%"></stop>
                        </linearGradient>
                    </defs>
                <path fill="url(#sw-gradient)" d="M19.7,-30.9C25.8,-26.8,31.1,-21.7,34.1,-15.5C37.1,-9.2,37.8,-1.8,36.4,4.9C34.9,11.7,31.4,17.9,26.9,23.5C22.4,29,16.9,34,10.4,36.4C3.8,38.8,-3.7,38.7,-11.9,37.6C-20,36.5,-28.6,34.4,-33.9,29C-39.2,23.6,-41.2,14.9,-40.5,7C-39.7,-0.9,-36.3,-8,-32.1,-13.6C-27.9,-19.2,-22.8,-23.4,-17.3,-27.7C-11.8,-32,-5.9,-36.6,0.5,-37.3C6.8,-38,13.7,-35,19.7,-30.9Z" width="100%" height="100%" transform="translate(50 50)" stroke-width="0" style="transition: all 0.3s ease 0s;" stroke="url(#sw-gradient)"></path>
              </svg>