<!--?xml version="1.0" standalone="no"?-->
              <svg id="sw-js-blob-svg" viewBox="0 0 100 100" xmlns="http://www.w3.org/2000/svg" version="1.1">
                    <defs> 
                        <linearGradient id="sw-gradient" x1="0" x2="1" y1="1" y2="0">
                            <stop id="stop1" stop-color="rgba(0, 43.37, 255, 1)" offset="0%"></stop>
                            <stop id="stop2" stop-color="rgba(0, 255, 198.853, 1)" offset="100%"></stop>
                        </linearGradient>
                    </defs>
                <path fill="url(#sw-gradient)" d="M26.8,-30.4C33.8,-26.1,37.7,-16.7,38.9,-7.2C40.2,2.3,38.7,11.9,34.6,20.9C30.5,29.8,23.7,38.2,16.3,38C8.8,37.8,0.7,29,-9.2,25.4C-19.1,21.7,-30.8,23.1,-37.1,18.4C-43.3,13.7,-44.2,2.9,-41.2,-6C-38.1,-15,-31.2,-22,-23.7,-26.2C-16.2,-30.4,-8.1,-31.8,0.9,-32.9C9.9,-34,19.9,-34.7,26.8,-30.4Z" width="100%" height="100%" transform="translate(50 50)" stroke-width="0" style="transition: all 0.3s ease 0s;" stroke="url(#sw-gradient)"></path>
              </svg>